<svg width="152" height="169" viewBox="0 0 152 169" fill="none" xmlns="http://www.w3.org/2000/svg">
<path d="M22 168.732V0H67.15C92.95 0 113.074 6.966 127.522 20.898C141.97 34.83 149.194 55.728 149.194 83.592C149.194 97.524 147.302 109.822 143.518 120.486C139.906 131.15 134.574 140.094 127.522 147.318C120.642 154.37 112.214 159.702 102.238 163.314C92.434 166.926 81.254 168.732 68.698 168.732H22ZM51.928 144.48H65.086C82.286 144.48 95.444 139.578 104.56 129.774C113.848 119.798 118.492 104.404 118.492 83.592C118.492 62.952 113.848 47.902 104.56 38.442C95.272 28.982 82.114 24.252 65.086 24.252H51.928V144.48Z" fill="#E7EBFA"/>
</svg>
