<svg width="152" height="169" viewBox="0 0 152 169" fill="none" xmlns="http://www.w3.org/2000/svg">
<path d="M12.9485 169V0H66.8416C75.6089 0 83.6026 0.77523 90.8227 2.32569C98.2147 3.70388 104.575 6.02957 109.904 9.30276C115.406 12.4037 119.617 16.6244 122.54 21.9648C125.634 27.3053 127.181 33.8517 127.181 41.604C127.181 49.7008 125.118 57.1947 120.993 64.0856C116.867 70.9766 111.108 75.7141 103.716 78.2982V79.3318C112.999 81.3991 120.649 85.7921 126.665 92.5107C132.854 99.0571 135.948 108.015 135.948 119.385C135.948 127.827 134.315 135.148 131.049 141.35C127.783 147.552 123.227 152.72 117.382 156.855C111.71 160.989 104.919 164.09 97.0114 166.157C89.1036 168.052 80.5082 169 71.2252 169H12.9485ZM42.8604 69.7707H64.263C76.1246 69.7707 84.634 67.6172 89.7913 63.3104C95.1204 59.0036 97.785 53.2324 97.785 45.997C97.785 37.7278 95.0345 31.8705 89.5334 28.4251C84.0323 24.9796 75.7808 23.2569 64.7787 23.2569H42.8604V69.7707ZM42.8604 145.743H68.1309C80.5082 145.743 90.0491 143.504 96.7535 139.024C103.458 134.373 106.81 127.31 106.81 117.835C106.81 108.877 103.544 102.416 97.0114 98.4541C90.4789 94.3196 80.8521 92.2523 68.1309 92.2523H42.8604V145.743Z" fill="#E7EBFA"/>
</svg>
