<svg width="152" height="169" viewBox="0 0 152 169" fill="none" xmlns="http://www.w3.org/2000/svg">
<path d="M86.551 169C76.2383 169 66.591 167.172 57.6089 163.516C48.6269 159.86 40.8092 154.46 34.1558 147.314C27.6688 140.169 22.5124 131.361 18.6868 120.892C14.8611 110.423 12.9482 98.4587 12.9482 84.9985C12.9482 71.7045 14.8611 59.823 18.6868 49.354C22.6788 38.7188 28.0015 29.7453 34.6548 22.4336C41.4745 15.1219 49.3754 9.55507 58.3574 5.73304C67.5058 1.91101 77.2363 0 87.549 0C97.8617 0 107.01 2.07719 114.994 6.23156C122.978 10.3859 129.548 15.205 134.705 20.6888L119.236 39.3835C114.911 35.0629 110.254 31.6563 105.264 29.1637C100.274 26.5049 94.6182 25.1755 88.2976 25.1755C81.6442 25.1755 75.4898 26.588 69.8345 29.413C64.3455 32.0718 59.5218 35.9769 55.3634 41.1283C51.3714 46.1136 48.2111 52.2621 45.8824 59.5737C43.72 66.8855 42.6389 75.1111 42.6389 84.2507C42.6389 102.862 46.6309 117.486 54.6149 128.121C62.7653 138.59 73.7433 143.824 87.549 143.824C94.8677 143.824 101.355 142.329 107.01 139.338C112.665 136.18 117.822 132.109 122.479 127.124L137.948 145.32C131.295 152.964 123.644 158.863 114.994 163.018C106.511 167.006 97.0301 169 86.551 169Z" fill="#E7EBFA"/>
</svg>
